<?xml version="1.0" standalone="no"?>
<!DOCTYPE svg PUBLIC "-//W3C//DTD SVG 20010904//EN"
 "http://www.w3.org/TR/2001/REC-SVG-20010904/DTD/svg10.dtd">
<svg version="1.0" xmlns="http://www.w3.org/2000/svg"
 width="64.000000pt" height="64.000000pt" viewBox="0 0 64.000000 64.000000"
 preserveAspectRatio="xMidYMid meet">

<g transform="translate(0.000000,64.000000) scale(0.100000,-0.100000)"
fill="#000000" stroke="none">
<path d="M0 320 l0 -320 320 0 320 0 0 320 0 320 -320 0 -320 0 0 -320z m350
225 c0 -18 5 -25 20 -25 13 0 20 -7 20 -20 0 -15 7 -20 25 -20 18 0 25 -5 25
-20 0 -13 7 -20 20 -20 19 0 20 -7 20 -120 l0 -120 -30 0 c-23 0 -30 -4 -30
-20 0 -16 7 -20 30 -20 29 0 30 -2 30 -45 l0 -45 -50 0 -50 0 0 65 0 65 -85 0
-85 0 0 -40 0 -40 40 0 c36 0 40 -2 40 -25 0 -24 -2 -25 -65 -25 l-65 0 0 185
c0 178 1 185 20 185 13 0 20 7 20 20 0 15 7 20 25 20 18 0 25 5 25 20 0 13 7
20 20 20 15 0 20 7 20 25 0 21 5 25 30 25 25 0 30 -4 30 -25z"/>
</g>
</svg>
